<?xml version="1.0" encoding="UTF-8"?>
<svg xmlns="http://www.w3.org/2000/svg" xmlns:xlink="http://www.w3.org/1999/xlink" viewBox="0 0 48 48" width="48px" height="48px">
<g id="surface351544722">
<path style=" stroke:none;fill-rule:nonzero;fill:rgb(20%,20%,20%);fill-opacity:1;" d="M 40.800781 13.222656 C 39.542969 13.777344 38.277344 14.199219 36.878906 14.34375 C 38.277344 13.5 39.398438 12.101562 39.957031 10.558594 C 38.558594 11.398438 37.15625 11.957031 35.621094 12.242188 C 34.222656 10.84375 32.398438 10 30.441406 10 C 26.65625 10 23.578125 13.078125 23.578125 16.859375 C 23.578125 17.421875 23.578125 17.980469 23.722656 18.398438 C 17.980469 18.121094 12.941406 15.457031 9.578125 11.257812 C 8.878906 12.242188 8.601562 13.5 8.601562 14.757812 C 8.601562 17.140625 9.859375 19.242188 11.679688 20.5 C 10.558594 20.359375 9.441406 20.078125 8.601562 19.65625 C 8.601562 19.65625 8.601562 19.65625 8.601562 19.800781 C 8.601562 23.15625 10.980469 25.957031 14.058594 26.519531 C 13.5 26.65625 12.941406 26.800781 12.242188 26.800781 C 11.820312 26.800781 11.398438 26.800781 10.980469 26.65625 C 11.820312 29.457031 14.34375 31.421875 17.421875 31.421875 C 15.042969 33.242188 12.101562 34.359375 8.878906 34.359375 C 8.320312 34.359375 7.757812 34.359375 7.199219 34.222656 C 10.277344 36.179688 13.921875 37.300781 17.699219 37.300781 C 30.441406 37.300781 37.300781 26.800781 37.300781 17.699219 C 37.300781 17.421875 37.300781 17.140625 37.300781 16.859375 C 38.699219 15.878906 39.820312 14.621094 40.800781 13.222656 "/>
</g>
</svg>
