<svg width="52" height="52" xmlns="http://www.w3.org/2000/svg" shape-rendering="geometricPrecision" text-rendering="geometricPrecision" image-rendering="optimizeQuality" fill-rule="evenodd" clip-rule="evenodd">
 <g>
  <title>Layer 1</title>
  <path stroke="null" d="m47.0515,0l-42.18409,0c-2.67707,0 -4.8674,2.17783 -4.8674,4.83963l0,41.94343c0,2.66179 2.19033,4.83963 4.8674,4.83963l42.18409,0c2.67707,0 4.8674,-2.17783 4.8674,-4.83963l0,-41.94343c0,-2.66179 -2.19033,-4.83963 -4.8674,-4.83963zm-4.8627,15.80421a13.08845,13.01376 0 0 1 -3.81921,1.03649c1.37212,-0.81354 2.4251,-2.11492 2.92815,-3.66303c-1.28678,0.7574 -2.71544,1.31372 -4.22547,1.60998c-1.22075,-1.28411 -2.94827,-2.08346 -4.8627,-2.08346c-3.67741,0 -6.65536,2.95903 -6.65536,6.61545c0,0.5126 0.05557,1.01842 0.16955,1.50625c-5.53148,-0.28102 -10.43628,-2.91426 -13.72186,-6.91946a6.65861,6.62061 0 0 0 -0.90258,3.32684c0,2.296 1.1728,4.32526 2.95979,5.50564c-1.09233,-0.03146 -2.11472,-0.33151 -3.01828,-0.82314l0,0.08389c0,3.20674 2.29579,5.88571 5.34279,6.49155a6.7184,6.68006 0 0 1 -1.75446,0.23254c-0.42922,0 -0.84409,-0.04194 -1.25514,-0.11914c0.84798,2.62848 3.30278,4.5453 6.21746,4.59765c-2.28233,1.77776 -5.14915,2.83626 -8.27086,2.83626c-0.53947,0 -1.06547,-0.03146 -1.59051,-0.09244c2.95208,1.88439 6.45126,2.97234 10.21117,2.97234c12.24436,0 18.94288,-10.08707 18.94288,-18.83373c0,-0.29062 -0.00487,-0.57446 -0.01915,-0.85936c1.30016,-0.92413 2.43086,-2.09209 3.31998,-3.41823l0.00389,-0.0029l-0.00008,0z" id="svg_1" fill="#333333"/>
 </g>

</svg>